<svg width="24" height="24" viewBox="0 0 24 24" fill="none" xmlns="http://www.w3.org/2000/svg">
<path d="M21.0001 15V3C21.0001 2.44772 20.5524 2 20.0001 2H4.00007C3.44779 2 3.00007 2.44772 3.00007 3V15M21.0001 15H3.10007M21.0001 15L22.6359 20.7253C22.8184 21.3641 22.3387 22 21.6743 22L2.3258 22C1.66142 22 1.18176 21.3641 1.36428 20.7253L3.00007 15M21.0001 15H3.00007M6.00007 19H18.0001M12.3334 4.5C12.8857 4.5 13.3334 4.94772 13.3334 5.5V7.06667C13.3334 7.1219 13.3782 7.16667 13.4334 7.16667H15.0001C15.5524 7.16667 16.0001 7.61438 16.0001 8.16667V8.83333C16.0001 9.38562 15.5524 9.83333 15.0001 9.83333H13.4334C13.3782 9.83333 13.3334 9.8781 13.3334 9.93333V11.5C13.3334 12.0523 12.8857 12.5 12.3334 12.5H11.6667C11.1145 12.5 10.6667 12.0523 10.6667 11.5V9.93333C10.6667 9.8781 10.622 9.83333 10.5667 9.83333H9.00007C8.44779 9.83333 8.00007 9.38562 8.00007 8.83333V8.16667C8.00007 7.61438 8.44779 7.16667 9.00007 7.16667H10.5667C10.622 7.16667 10.6667 7.1219 10.6667 7.06667V5.5C10.6667 4.94772 11.1145 4.5 11.6667 4.5H12.3334Z" stroke="black" stroke-width="1.5" stroke-linecap="round" stroke-linejoin="round"/>
</svg>
